<svg width="21" height="21" viewBox="0 0 21 21" fill="none" xmlns="http://www.w3.org/2000/svg">
<g clip-path="url(#clip0_2028_1502)">
<mask id="mask0_2028_1502" style="mask-type:luminance" maskUnits="userSpaceOnUse" x="0" y="0" width="21" height="21">
<path d="M21 0H0V21H21V0Z" fill="white"/>
</mask>
<g mask="url(#mask0_2028_1502)">
<path d="M5.99844 -0.299805C2.52534 -0.299805 -0.299805 2.52795 -0.299805 6.00195V15.002C-0.299805 18.4751 2.52795 21.3002 6.00195 21.3002H15.002C18.4751 21.3002 21.3002 18.4725 21.3002 14.9985V5.99843C21.3002 2.52533 18.4724 -0.299805 14.9984 -0.299805H5.99844ZM16.8002 3.30019C17.297 3.30019 17.7002 3.70339 17.7002 4.20019C17.7002 4.69699 17.297 5.10019 16.8002 5.10019C16.3034 5.10019 15.9002 4.69699 15.9002 4.20019C15.9002 3.70339 16.3034 3.30019 16.8002 3.30019ZM10.5002 5.10019C13.4783 5.10019 15.9002 7.52209 15.9002 10.5002C15.9002 13.4783 13.4783 15.9002 10.5002 15.9002C7.5221 15.9002 5.1002 13.4783 5.1002 10.5002C5.1002 7.52209 7.5221 5.10019 10.5002 5.10019ZM10.5002 6.90019C9.54542 6.90019 8.62974 7.27948 7.95461 7.95461C7.27948 8.62974 6.9002 9.54541 6.9002 10.5002C6.9002 11.455 7.27948 12.3707 7.95461 13.0458C8.62974 13.7209 9.54542 14.1002 10.5002 14.1002C11.455 14.1002 12.3706 13.7209 13.0458 13.0458C13.7209 12.3707 14.1002 11.455 14.1002 10.5002C14.1002 9.54541 13.7209 8.62974 13.0458 7.95461C12.3706 7.27948 11.455 6.90019 10.5002 6.90019Z" fill="#FFA71A"/>
</g>
</g>
<defs>
<clipPath id="clip0_2028_1502">
<rect width="21" height="21" fill="white"/>
</clipPath>
</defs>
</svg>
