<svg width="23" height="23" viewBox="0 0 23 23" fill="none" xmlns="http://www.w3.org/2000/svg">
<path d="M11.397 22.518C8.34626 22.518 5.29555 22.5079 2.24485 22.518C1.86224 22.5284 1.48882 22.3999 1.19367 22.1562C0.898518 21.9125 0.701614 21.5702 0.639391 21.1925C0.627906 21.1132 0.622268 21.0332 0.622525 20.953V2.52064C0.617502 2.31489 0.654099 2.11025 0.730118 1.91899C0.806138 1.72774 0.920011 1.55381 1.06491 1.40765C1.20981 1.2615 1.38274 1.14612 1.57333 1.06845C1.76392 0.990775 1.96824 0.95241 2.17402 0.955652C3.15045 0.94722 4.12688 0.955652 5.1033 0.955652C10.2749 0.955652 15.441 0.955652 20.6014 0.955652C20.9429 0.946228 21.2783 1.04849 21.5564 1.24693C21.8346 1.44537 22.0405 1.72915 22.1427 2.05519C22.1846 2.20345 22.2073 2.35648 22.2102 2.51052C22.2102 8.66477 22.2102 14.8185 22.2102 20.9716C22.2152 21.176 22.1789 21.3793 22.1034 21.5694C22.0279 21.7594 21.9147 21.9322 21.7708 22.0774C21.6268 22.2226 21.455 22.3373 21.2656 22.4144C21.0763 22.4916 20.8733 22.5297 20.6688 22.5265C19.517 22.5349 18.3652 22.5265 17.2134 22.5265L11.397 22.518ZM12.1356 10.3557C12.1356 9.97791 12.1356 9.60185 12.1356 9.22578C12.1356 9.05714 12.0766 9.00823 11.913 9.00992C11.0293 9.00992 10.1473 9.00992 9.26535 9.00992C8.9989 9.00992 8.9989 9.00992 8.9989 9.27468C8.9989 12.5531 8.9989 15.832 8.9989 19.1115C8.9989 19.3189 9.06635 19.3746 9.26535 19.3712C10.1743 19.3628 11.0833 19.3712 11.9923 19.3712C12.2604 19.3712 12.2621 19.3712 12.2621 19.1047C12.2621 17.4554 12.2621 15.8061 12.2621 14.1568C12.2605 13.8144 12.2887 13.4724 12.3464 13.1349C12.4712 12.4468 12.7832 11.8819 13.5269 11.6964C13.7625 11.6429 14.0039 11.6197 14.2453 11.6272C15.0126 11.6357 15.4932 11.9965 15.6636 12.7453C15.7518 13.1583 15.7965 13.5794 15.7968 14.0017C15.8103 15.6982 15.7968 17.3947 15.7968 19.0912C15.7968 19.3678 15.7968 19.3712 16.0801 19.3712C16.9823 19.3712 17.8846 19.3712 18.7784 19.3712C18.9774 19.3712 19.0431 19.3206 19.0414 19.1115C19.0414 17.1451 19.0566 15.1788 19.0263 13.2091C19.0127 12.5519 18.9302 11.8979 18.78 11.2579C18.5187 10.1128 17.8508 9.27637 16.6788 8.94752C16.2682 8.8529 15.851 8.78976 15.4308 8.75864C14.7042 8.67864 13.9714 8.83919 13.3448 9.21566C12.8641 9.50385 12.4516 9.89277 12.1356 10.3557ZM3.78622 14.1973C3.78622 15.8399 3.78622 17.4824 3.78622 19.125C3.78622 19.3223 3.84862 19.3762 4.03918 19.3746C4.96108 19.3678 5.88298 19.3678 6.80489 19.3746C6.98196 19.3746 7.05279 19.329 7.05279 19.1351C7.05279 15.8387 7.05279 12.5412 7.05279 9.24264C7.05279 9.0487 6.98364 9.00823 6.80657 9.00992C5.89085 9.00992 4.97514 9.00992 4.05942 9.00992C3.79128 9.00992 3.79128 9.00992 3.79128 9.28818L3.78622 14.1973ZM5.41866 7.62876C5.6644 7.63077 5.90808 7.58394 6.13557 7.49098C6.36305 7.39802 6.5698 7.26079 6.7438 7.08726C6.91781 6.91373 7.0556 6.70736 7.14917 6.48012C7.24274 6.25289 7.29023 6.00933 7.28888 5.76359C7.29022 5.51706 7.24284 5.27269 7.14947 5.04452C7.0561 4.81635 6.91858 4.60888 6.7448 4.43401C6.57102 4.25913 6.36441 4.12031 6.13683 4.0255C5.90926 3.9307 5.66519 3.88178 5.41866 3.88156C5.17105 3.87972 4.92559 3.92747 4.69672 4.02199C4.46786 4.11651 4.26025 4.2559 4.0861 4.43193C3.91196 4.60795 3.77482 4.81707 3.68277 5.04693C3.59072 5.2768 3.54562 5.52276 3.55013 5.77033C3.54967 6.01537 3.59777 6.25806 3.69163 6.4844C3.7855 6.71074 3.92329 6.91624 4.09702 7.08903C4.27075 7.26182 4.47699 7.39849 4.70384 7.49112C4.93068 7.58376 5.17364 7.63054 5.41866 7.62876Z" fill="#FFA71A"/>
</svg>
