<svg width="24" height="19" viewBox="0 0 24 19" fill="none" xmlns="http://www.w3.org/2000/svg">
<path fill-rule="evenodd" clip-rule="evenodd" d="M11.9117 5.86416C11.0005 1.19124 16.7709 -1.58848 20.1713 1.77986C20.1713 1.77986 21.6901 1.36582 23.0264 0.537753C22.6352 1.61141 21.887 2.52713 20.9007 3.13969C20.9007 3.13969 22.7222 2.90344 23.5124 2.43015C23.5124 2.43015 22.7222 4.02703 21.265 4.61885C22.0544 15.3245 10.2111 21.8306 0.615234 16.5074C0.615234 16.5074 5.35273 16.7476 7.35841 14.4964C7.35841 14.4964 4.44322 14.7327 2.98522 11.3027C2.98522 11.3027 4.07893 11.7167 5.17181 11.1842C5.17181 11.1842 1.77062 10.6516 1.47129 6.68903C1.47129 6.68903 2.56418 7.5171 3.77878 7.22079C3.77878 7.22079 0.0132851 5.03289 2.13903 1.06951C2.13903 1.06951 6.14793 6.03474 11.9175 5.86096L11.9117 5.86416Z" fill="#FFA71A"/>
</svg>
